<svg xmlns="http://www.w3.org/2000/svg" class="bg-cream" ><path d="M8 3.012c-1.687 0-3.165.48-4.246 1.353-1.082.874-1.742 2.168-1.742 3.582 0 2.744 2.457 4.867 5.705 4.994a.988.988 0 0 0 .283.047c1.754 0 3.246-.514 4.313-1.424a4.74 4.74 0 0 0 1.675-3.617.988.988 0 0 0-.002-.054C13.832 5.132 11.375 3.012 8 3.012zm0 1.976c2.61 0 3.896 1.281 4.006 2.985a2.672 2.672 0 0 1-.975 2.09c-.652.556-1.66.949-3.031.949-2.602 0-4.012-1.413-4.012-3.065 0-.826.34-1.505 1.008-2.045.669-.54 1.691-.914 3.004-.914zM3 15a1 1 0 0 0-1 1v29a1 1 0 0 0 1 1h10a1 1 0 0 0 1-1V16a1 1 0 0 0-1-1H3zm15 0a1 1 0 0 0-1 1v29a1 1 0 0 0 1 1h10a1 1 0 0 0 1-1V28.5c0-1.944 1.556-3.5 3.5-3.5s3.5 1.556 3.5 3.5V45a1 1 0 0 0 1 1h10a1 1 0 0 0 1-1V28c0-4.127-1.212-7.396-3.256-9.625C42.7 16.145 39.85 15 36.787 15c-3.904 0-6.265 1.426-7.787 2.602V16a1 1 0 0 0-1-1H18zM4 17h8v27H4V17zm15 0h8v2.639a1 1 0 0 0 1.744.668S31.71 17 36.787 17c2.573 0 4.829.922 6.483 2.727C44.924 21.53 46 24.262 46 28v16h-8V28.5a1 1 0 0 0-.084-.41C37.694 25.264 35.38 23 32.5 23c-3.026 0-5.5 2.474-5.5 5.5V44h-8V17z"/></svg>